<?xml version="1.0" ?>
<svg xmlns="http://www.w3.org/2000/svg" version="1.1" width="224" height="224">
  <defs/>
  <g>
    <path d="M 31.992549896240234 122.38607025146484 C 18.02760124206543 113.38787841796875 23.55457878112793 95.62374877929688 33.3958625793457 82.2278823852539" stroke-width="3.0" fill="none" stroke="rgb(0, 0, 0)" stroke-opacity="1.0" stroke-linecap="round" stroke-linejoin="round"/>
    <path d="M 71.90267181396484 82.72122192382812 C 89.23751068115234 186.29795837402344 71.81253814697266 152.16278076171875 139.2243194580078 136.10435485839844" stroke-width="3.0" fill="none" stroke="rgb(0, 0, 0)" stroke-opacity="1.0" stroke-linecap="round" stroke-linejoin="round"/>
    <path d="M 120.65656280517578 107.43511199951172 C 176.9112548828125 109.91276550292969 178.29226684570312 69.52606201171875 94.09878540039062 122.66120910644531" stroke-width="3.0" fill="none" stroke="rgb(0, 0, 0)" stroke-opacity="1.0" stroke-linecap="round" stroke-linejoin="round"/>
    <path d="M 65.11373901367188 51.83073425292969 C 47.63801193237305 68.16121673583984 16.549224853515625 80.27701568603516 18.530921936035156 97.9883041381836" stroke-width="3.0" fill="none" stroke="rgb(0, 0, 0)" stroke-opacity="1.0" stroke-linecap="round" stroke-linejoin="round"/>
    <path d="M 104.35504150390625 73.62310791015625 C 88.11566925048828 96.35225677490234 95.4891586303711 108.98351287841797 155.386474609375 88.92521667480469" stroke-width="3.0" fill="none" stroke="rgb(0, 0, 0)" stroke-opacity="1.0" stroke-linecap="round" stroke-linejoin="round"/>
    <path d="M 49.158084869384766 131.6320343017578 C 38.309844970703125 116.27440643310547 23.586721420288086 122.3094253540039 40.024593353271484 86.2738265991211" stroke-width="3.0" fill="none" stroke="rgb(0, 0, 0)" stroke-opacity="1.0" stroke-linecap="round" stroke-linejoin="round"/>
    <path d="M 140.34925842285156 -5.724201679229736 C 151.5104522705078 -3.8771915435791016 148.3953857421875 -0.16736572980880737 138.7947540283203 -10.67270278930664" stroke-width="3.0" fill="none" stroke="rgb(0, 0, 0)" stroke-opacity="1.0" stroke-linecap="round" stroke-linejoin="round"/>
    <path d="M 98.17688751220703 144.21397399902344 C 196.67864990234375 95.33740997314453 200.68768310546875 117.81726837158203 91.96076965332031 143.4764404296875" stroke-width="3.0" fill="none" stroke="rgb(0, 0, 0)" stroke-opacity="1.0" stroke-linecap="round" stroke-linejoin="round"/>
    <path d="M 187.021484375 76.3284912109375 C 187.4327392578125 33.839515686035156 103.58086395263672 32.1173095703125 29.422521591186523 71.93836975097656" stroke-width="3.0" fill="none" stroke="rgb(0, 0, 0)" stroke-opacity="1.0" stroke-linecap="round" stroke-linejoin="round"/>
    <path d="M 64.7901840209961 45.316383361816406 C 123.45415496826172 27.410411834716797 204.2125244140625 22.459449768066406 177.28688049316406 22.535219192504883" stroke-width="3.0" fill="none" stroke="rgb(0, 0, 0)" stroke-opacity="1.0" stroke-linecap="round" stroke-linejoin="round"/>
    <path d="M 161.03433227539062 24.18906021118164 C 158.8567657470703 27.369932174682617 209.1663818359375 20.172273635864258 197.90213012695312 24.198543548583984" stroke-width="3.0" fill="none" stroke="rgb(0, 0, 0)" stroke-opacity="1.0" stroke-linecap="round" stroke-linejoin="round"/>
    <path d="M 66.49127960205078 53.34648513793945 C 55.89290237426758 -6.045692443847656 54.28303909301758 16.82508087158203 74.39305114746094 -23.94247055053711" stroke-width="3.0" fill="none" stroke="rgb(0, 0, 0)" stroke-opacity="1.0" stroke-linecap="round" stroke-linejoin="round"/>
    <path d="M 129.46470642089844 95.81958770751953 C 185.34991455078125 58.067081451416016 134.60400390625 53.26913833618164 166.7833709716797 103.43964385986328" stroke-width="3.0" fill="none" stroke="rgb(0, 0, 0)" stroke-opacity="1.0" stroke-linecap="round" stroke-linejoin="round"/>
    <path d="M 128.20237731933594 171.76324462890625 C 164.695068359375 148.1864471435547 138.20587158203125 142.4415740966797 152.41102600097656 124.49790954589844" stroke-width="3.0" fill="none" stroke="rgb(0, 0, 0)" stroke-opacity="1.0" stroke-linecap="round" stroke-linejoin="round"/>
    <path d="M 38.569007873535156 125.50818634033203 C 11.099015235900879 118.16484069824219 -1.4176489114761353 82.24857330322266 49.09441375732422 62.486976623535156" stroke-width="3.0" fill="none" stroke="rgb(0, 0, 0)" stroke-opacity="1.0" stroke-linecap="round" stroke-linejoin="round"/>
    <path d="M 201.2819061279297 194.1845245361328 C 236.75732421875 266.9525451660156 190.22315979003906 232.72109985351562 212.25709533691406 232.31149291992188" stroke-width="3.0" fill="none" stroke="rgb(0, 0, 0)" stroke-opacity="1.0" stroke-linecap="round" stroke-linejoin="round"/>
    <path d="M 214.53076171875 40.01846694946289 C 217.4499053955078 52.60765838623047 205.55462646484375 79.96757507324219 187.5016326904297 103.05970001220703" stroke-width="3.0" fill="none" stroke="rgb(0, 0, 0)" stroke-opacity="1.0" stroke-linecap="round" stroke-linejoin="round"/>
    <path d="M 65.07489776611328 -11.12254524230957 C 56.525367736816406 17.23883819580078 58.18320846557617 4.537454605102539 67.10685729980469 39.25730514526367" stroke-width="3.0" fill="none" stroke="rgb(0, 0, 0)" stroke-opacity="1.0" stroke-linecap="round" stroke-linejoin="round"/>
    <path d="M 101.06390380859375 138.62396240234375 C 26.498388290405273 136.523193359375 53.696937561035156 122.60079956054688 67.00897979736328 81.18341064453125" stroke-width="3.0" fill="none" stroke="rgb(0, 0, 0)" stroke-opacity="1.0" stroke-linecap="round" stroke-linejoin="round"/>
    <path d="M 227.85943603515625 187.32958984375 C 252.2325439453125 188.41587829589844 241.99057006835938 192.75904846191406 228.31622314453125 173.54193115234375" stroke-width="3.0" fill="none" stroke="rgb(0, 0, 0)" stroke-opacity="1.0" stroke-linecap="round" stroke-linejoin="round"/>
    <path d="M 4.883758068084717 47.98996353149414 C -15.62905216217041 37.5339241027832 -12.315675735473633 74.05387115478516 -17.079492568969727 54.64806365966797" stroke-width="3.0" fill="none" stroke="rgb(0, 0, 0)" stroke-opacity="1.0" stroke-linecap="round" stroke-linejoin="round"/>
    <path d="M 103.79632568359375 148.80435180664062 C 189.82272338867188 115.54753112792969 153.70709228515625 131.34893798828125 159.24432373046875 148.9592742919922" stroke-width="3.0" fill="none" stroke="rgb(0, 0, 0)" stroke-opacity="1.0" stroke-linecap="round" stroke-linejoin="round"/>
    <path d="M 162.17745971679688 107.73625183105469 C 135.3668670654297 28.16704750061035 171.6147918701172 74.08208465576172 101.93465423583984 82.8802719116211" stroke-width="3.0" fill="none" stroke="rgb(0, 0, 0)" stroke-opacity="1.0" stroke-linecap="round" stroke-linejoin="round"/>
    <path d="M 117.67522430419922 129.5101318359375 C 228.46591186523438 91.01956176757812 180.04734802246094 84.10074615478516 82.73267364501953 131.33853149414062" stroke-width="3.0" fill="none" stroke="rgb(0, 0, 0)" stroke-opacity="1.0" stroke-linecap="round" stroke-linejoin="round"/>
    <path d="M -6.359226226806641 126.6446762084961 C -5.979213237762451 131.8342742919922 -10.754918098449707 128.52264404296875 -9.314537048339844 134.7184295654297" stroke-width="3.0" fill="none" stroke="rgb(0, 0, 0)" stroke-opacity="1.0" stroke-linecap="round" stroke-linejoin="round"/>
    <path d="M 116.19465637207031 61.8234977722168 C 88.92875671386719 77.81462097167969 88.2613525390625 92.6908187866211 120.11031341552734 80.60778045654297" stroke-width="3.0" fill="none" stroke="rgb(0, 0, 0)" stroke-opacity="1.0" stroke-linecap="round" stroke-linejoin="round"/>
    <path d="M 136.23492431640625 -16.72396469116211 C 130.2195587158203 -22.006187438964844 136.84567260742188 -13.025615692138672 144.38278198242188 21.802316665649414" stroke-width="3.0" fill="none" stroke="rgb(0, 0, 0)" stroke-opacity="1.0" stroke-linecap="round" stroke-linejoin="round"/>
    <path d="M 232.80812072753906 186.9519500732422 C 215.50498962402344 171.03338623046875 198.29989624023438 193.380615234375 193.91455078125 194.4759979248047" stroke-width="3.0" fill="none" stroke="rgb(0, 0, 0)" stroke-opacity="1.0" stroke-linecap="round" stroke-linejoin="round"/>
    <path d="M 152.91763305664062 14.668076515197754 C 159.87428283691406 27.11289405822754 158.65283203125 29.47825050354004 149.1253662109375 28.384096145629883" stroke-width="3.0" fill="none" stroke="rgb(0, 0, 0)" stroke-opacity="1.0" stroke-linecap="round" stroke-linejoin="round"/>
    <path d="M 233.93499755859375 229.70022583007812 C 246.91036987304688 203.8525848388672 233.0797576904297 162.6263885498047 165.76113891601562 167.18136596679688" stroke-width="3.0" fill="none" stroke="rgb(0, 0, 0)" stroke-opacity="1.0" stroke-linecap="round" stroke-linejoin="round"/>
    <path d="M 71.5228271484375 81.78648376464844 C 75.00382232666016 91.8196029663086 58.28843688964844 112.14741516113281 71.53479766845703 80.7901611328125" stroke-width="3.0" fill="none" stroke="rgb(0, 0, 0)" stroke-opacity="1.0" stroke-linecap="round" stroke-linejoin="round"/>
    <path d="M 36.680633544921875 80.44377136230469 C 108.67256164550781 83.69699096679688 179.4330596923828 5.050398826599121 146.9306640625 92.08953857421875" stroke-width="3.0" fill="none" stroke="rgb(0, 0, 0)" stroke-opacity="1.0" stroke-linecap="round" stroke-linejoin="round"/>
    <path d="M 38.99451446533203 182.5534210205078 C -15.668434143066406 194.22837829589844 42.38216018676758 182.4214324951172 34.14619827270508 171.3062286376953" stroke-width="3.0" fill="none" stroke="rgb(0, 0, 0)" stroke-opacity="1.0" stroke-linecap="round" stroke-linejoin="round"/>
    <path d="M 168.59690856933594 242.34535217285156 C 173.49432373046875 222.75833129882812 171.4263458251953 222.4431610107422 194.72593688964844 193.28756713867188" stroke-width="3.0" fill="none" stroke="rgb(0, 0, 0)" stroke-opacity="1.0" stroke-linecap="round" stroke-linejoin="round"/>
    <path d="M 182.93597412109375 231.71075439453125 C 195.7935791015625 234.49713134765625 194.06539916992188 235.2742919921875 192.70028686523438 227.78704833984375" stroke-width="3.0" fill="none" stroke="rgb(0, 0, 0)" stroke-opacity="1.0" stroke-linecap="round" stroke-linejoin="round"/>
    <path d="M 166.7900848388672 106.72622680664062 C 131.5664825439453 65.58011627197266 174.806396484375 77.681396484375 150.38357543945312 57.70039367675781" stroke-width="3.0" fill="none" stroke="rgb(0, 0, 0)" stroke-opacity="1.0" stroke-linecap="round" stroke-linejoin="round"/>
    <path d="M 46.900638580322266 240.92832946777344 C 44.903507232666016 168.08401489257812 -14.910624504089355 209.37408447265625 98.23419952392578 135.19871520996094" stroke-width="3.0" fill="none" stroke="rgb(0, 0, 0)" stroke-opacity="1.0" stroke-linecap="round" stroke-linejoin="round"/>
    <path d="M 116.84953308105469 197.21913146972656 C 170.2176055908203 128.59271240234375 157.38328552246094 167.8380889892578 155.13113403320312 138.57232666015625" stroke-width="3.0" fill="none" stroke="rgb(0, 0, 0)" stroke-opacity="1.0" stroke-linecap="round" stroke-linejoin="round"/>
    <path d="M 176.62103271484375 111.51715087890625 C 114.93850708007812 135.33741760253906 159.77865600585938 124.35546875 171.27320861816406 101.65522766113281" stroke-width="3.0" fill="none" stroke="rgb(0, 0, 0)" stroke-opacity="1.0" stroke-linecap="round" stroke-linejoin="round"/>
    <path d="M 162.59771728515625 50.777774810791016 C 103.9877700805664 40.14891052246094 186.50201416015625 89.80682373046875 99.30895233154297 94.58272552490234" stroke-width="3.0" fill="none" stroke="rgb(0, 0, 0)" stroke-opacity="1.0" stroke-linecap="round" stroke-linejoin="round"/>
    <path d="M 228.70611572265625 212.5191650390625 C 225.232666015625 216.11997985839844 224.7110137939453 216.78175354003906 234.6153106689453 213.6820526123047" stroke-width="3.0" fill="none" stroke="rgb(0, 0, 0)" stroke-opacity="1.0" stroke-linecap="round" stroke-linejoin="round"/>
    <path d="M 168.27725219726562 156.69825744628906 C 172.95730590820312 179.15655517578125 125.40464782714844 175.01052856445312 100.89681243896484 237.1239471435547" stroke-width="3.0" fill="none" stroke="rgb(0, 0, 0)" stroke-opacity="1.0" stroke-linecap="round" stroke-linejoin="round"/>
    <path d="M 58.38587951660156 59.198856353759766 C 82.65184020996094 47.74124526977539 7.850486755371094 4.0988616943359375 130.09384155273438 -15.493928909301758" stroke-width="3.0" fill="none" stroke="rgb(0, 0, 0)" stroke-opacity="1.0" stroke-linecap="round" stroke-linejoin="round"/>
    <path d="M 213.22323608398438 53.2046012878418 C 223.43190002441406 25.294605255126953 190.0362091064453 24.23675537109375 195.72589111328125 22.641855239868164" stroke-width="3.0" fill="none" stroke="rgb(0, 0, 0)" stroke-opacity="1.0" stroke-linecap="round" stroke-linejoin="round"/>
    <path d="M 96.12385559082031 76.54264831542969 C 175.56109619140625 37.8382453918457 129.14353942871094 51.247982025146484 95.24256134033203 74.12340545654297" stroke-width="3.0" fill="none" stroke="rgb(0, 0, 0)" stroke-opacity="1.0" stroke-linecap="round" stroke-linejoin="round"/>
    <path d="M 259.8075256347656 184.579833984375 C 226.1136474609375 191.24362182617188 214.92066955566406 172.23814392089844 196.2435302734375 169.45985412597656" stroke-width="3.0" fill="none" stroke="rgb(0, 0, 0)" stroke-opacity="1.0" stroke-linecap="round" stroke-linejoin="round"/>
    <path d="M 146.60902404785156 57.970882415771484 C 70.12828826904297 90.84134674072266 105.07087707519531 61.79306411743164 144.0034637451172 48.5535888671875" stroke-width="3.0" fill="none" stroke="rgb(0, 0, 0)" stroke-opacity="1.0" stroke-linecap="round" stroke-linejoin="round"/>
    <path d="M 194.88690185546875 91.70689392089844 C 196.1156768798828 87.35393524169922 186.39646911621094 115.95983123779297 146.22244262695312 132.1580810546875" stroke-width="3.0" fill="none" stroke="rgb(0, 0, 0)" stroke-opacity="1.0" stroke-linecap="round" stroke-linejoin="round"/>
    <path d="M 172.65374755859375 107.36217498779297 C 213.17738342285156 71.9520034790039 150.0492401123047 30.0618839263916 155.22506713867188 99.21757507324219" stroke-width="3.0" fill="none" stroke="rgb(0, 0, 0)" stroke-opacity="1.0" stroke-linecap="round" stroke-linejoin="round"/>
    <path d="M 90.56375885009766 235.1096954345703 C 112.70098114013672 188.75193786621094 89.69815826416016 190.66119384765625 148.14588928222656 154.70689392089844" stroke-width="3.0" fill="none" stroke="rgb(0, 0, 0)" stroke-opacity="1.0" stroke-linecap="round" stroke-linejoin="round"/>
    <path d="M 141.0411376953125 91.1582260131836 C 224.74766540527344 119.28652954101562 131.5453338623047 92.34941864013672 173.259765625 62.130157470703125" stroke-width="3.0" fill="none" stroke="rgb(0, 0, 0)" stroke-opacity="1.0" stroke-linecap="round" stroke-linejoin="round"/>
    <path d="M 157.5740966796875 124.45087432861328 C 126.83731079101562 136.28746032714844 151.25035095214844 158.53948974609375 127.09375762939453 161.324462890625" stroke-width="3.0" fill="none" stroke="rgb(0, 0, 0)" stroke-opacity="1.0" stroke-linecap="round" stroke-linejoin="round"/>
    <path d="M 48.547115325927734 187.9781494140625 C 55.107521057128906 208.30996704101562 29.46670150756836 181.38417053222656 68.2525863647461 242.17176818847656" stroke-width="3.0" fill="none" stroke="rgb(0, 0, 0)" stroke-opacity="1.0" stroke-linecap="round" stroke-linejoin="round"/>
    <path d="M -8.972078323364258 138.48995971679688 C -3.013866901397705 123.01720428466797 -8.666855812072754 94.22158813476562 -8.140007972717285 90.60099792480469" stroke-width="3.0" fill="none" stroke="rgb(0, 0, 0)" stroke-opacity="1.0" stroke-linecap="round" stroke-linejoin="round"/>
    <path d="M 114.6256332397461 144.66236877441406 C 130.5076446533203 180.65391540527344 112.56169891357422 199.03213500976562 157.02847290039062 155.388427734375" stroke-width="3.0" fill="none" stroke="rgb(0, 0, 0)" stroke-opacity="1.0" stroke-linecap="round" stroke-linejoin="round"/>
    <path d="M 74.01531982421875 78.75773620605469 C 76.85884094238281 102.15121459960938 58.49713897705078 95.74650573730469 87.9733657836914 148.26168823242188" stroke-width="3.0" fill="none" stroke="rgb(0, 0, 0)" stroke-opacity="1.0" stroke-linecap="round" stroke-linejoin="round"/>
    <path d="M 105.5337905883789 136.43455505371094 C 183.37950134277344 108.48223876953125 178.07447814941406 103.3023452758789 128.5523223876953 112.14236450195312" stroke-width="3.0" fill="none" stroke="rgb(0, 0, 0)" stroke-opacity="1.0" stroke-linecap="round" stroke-linejoin="round"/>
    <path d="M 132.2261505126953 117.8050537109375 C 184.2057647705078 104.14590454101562 162.98590087890625 100.90773010253906 86.68181610107422 139.05178833007812" stroke-width="3.0" fill="none" stroke="rgb(0, 0, 0)" stroke-opacity="1.0" stroke-linecap="round" stroke-linejoin="round"/>
    <path d="M 85.7756118774414 75.01274871826172 C 80.80294036865234 104.11994171142578 82.39421081542969 59.227725982666016 88.91653442382812 130.10923767089844" stroke-width="3.0" fill="none" stroke="rgb(0, 0, 0)" stroke-opacity="1.0" stroke-linecap="round" stroke-linejoin="round"/>
    <path d="M 174.70640563964844 165.4115753173828 C 140.80833435058594 118.6444320678711 164.67578125 150.43801879882812 162.03558349609375 124.22615051269531" stroke-width="3.0" fill="none" stroke="rgb(0, 0, 0)" stroke-opacity="1.0" stroke-linecap="round" stroke-linejoin="round"/>
    <path d="M 246.91293334960938 186.37857055664062 C 211.95504760742188 191.28125 212.27101135253906 171.62454223632812 188.609619140625 199.728515625" stroke-width="3.0" fill="none" stroke="rgb(0, 0, 0)" stroke-opacity="1.0" stroke-linecap="round" stroke-linejoin="round"/>
    <path d="M -8.284390449523926 103.5391845703125 C 0.5219327807426453 113.3084487915039 -7.024962902069092 108.33878326416016 -6.285166263580322 98.12252807617188" stroke-width="3.0" fill="none" stroke="rgb(0, 0, 0)" stroke-opacity="1.0" stroke-linecap="round" stroke-linejoin="round"/>
    <path d="M 113.80379486083984 -16.050966262817383 C 53.40241622924805 -24.7379093170166 53.50161361694336 14.858400344848633 59.892696380615234 -8.827840805053711" stroke-width="3.0" fill="none" stroke="rgb(0, 0, 0)" stroke-opacity="1.0" stroke-linecap="round" stroke-linejoin="round"/>
    <path d="M 110.29887390136719 146.8976593017578 C 133.15142822265625 182.01783752441406 141.48634338378906 161.65487670898438 126.7724380493164 175.22450256347656" stroke-width="3.0" fill="none" stroke="rgb(0, 0, 0)" stroke-opacity="1.0" stroke-linecap="round" stroke-linejoin="round"/>
  </g>
</svg>
